<svg width="96" height="32" viewBox="0 0 96 32" fill="none" xmlns="http://www.w3.org/2000/svg">
  <rect width="96" height="32" rx="8" fill="white"/>
  <circle cx="40" cy="16" r="8" fill="#EB001B"/>
  <circle cx="56" cy="16" r="8" fill="#F79E1B"/>
  <path d="M48 10.25C49.86 11.69 51 13.73 51 16C51 18.27 49.86 20.31 48 21.75C46.14 20.31 45 18.27 45 16C45 13.73 46.14 11.69 48 10.25Z" fill="#FF5F00"/>
  <path d="M66.782 22.533V21.713C66.782 21.399 66.585 21.191 66.218 21.191C66.033 21.191 65.845 21.251 65.707 21.451C65.601 21.285 65.44 21.191 65.187 21.191C65.016 21.191 64.849 21.241 64.718 21.432V21.244H64.432V22.533H64.721V21.816C64.721 21.592 64.842 21.479 65.028 21.479C65.211 21.479 65.303 21.602 65.303 21.813V22.533H65.593V21.816C65.593 21.592 65.722 21.479 65.9 21.479C66.089 21.479 66.177 21.602 66.177 21.813V22.533H66.782Z" fill="#231F20"/>
  <path d="M71.002 21.244H70.529V20.854H70.239V21.244H69.972V21.503H70.239V22.096C70.239 22.397 70.356 22.577 70.688 22.577C70.809 22.577 70.95 22.538 71.037 22.477L70.953 22.229C70.873 22.276 70.786 22.305 70.71 22.305C70.56 22.305 70.529 22.213 70.529 22.084V21.503H71.002V21.244Z" fill="#231F20"/>
  <path d="M73.326 21.213C73.16 21.213 73.052 21.289 72.978 21.404V21.244H72.692V22.533H72.982V21.81C72.982 21.595 73.075 21.476 73.253 21.476C73.307 21.476 73.365 21.484 73.42 21.505L73.509 21.231C73.454 21.218 73.387 21.213 73.326 21.213Z" fill="#231F20"/>
  <path d="M69.152 21.346C69.024 21.252 68.837 21.191 68.631 21.191C68.298 21.191 68.089 21.352 68.089 21.613C68.089 21.826 68.251 21.957 68.549 22L68.686 22.018C68.844 22.042 68.919 22.087 68.919 22.166C68.919 22.276 68.804 22.339 68.588 22.339C68.372 22.339 68.213 22.271 68.11 22.192L67.972 22.421C68.128 22.534 68.366 22.584 68.582 22.584C68.965 22.584 69.188 22.407 69.188 22.15C69.188 21.921 69.013 21.805 68.718 21.763L68.58 21.744C68.452 21.729 68.351 21.705 68.351 21.613C68.351 21.508 68.459 21.446 68.623 21.446C68.796 21.446 68.961 21.513 69.045 21.566L69.152 21.346Z" fill="#231F20"/>
</svg>
