<svg width="96" height="32" viewBox="0 0 96 32" fill="none" xmlns="http://www.w3.org/2000/svg">
  <rect width="96" height="32" rx="8" fill="white"/>
  <path d="M33.15 23.4H28.85L31.52 6.6H37.66C43.11 6.6 46.08 9.14 45.31 13.63C44.54 18.03 40.88 20.32 35.75 20.32H33.63L33.15 23.4ZM34.26 16.93H35.79C38.48 16.93 40.38 15.87 40.82 13.4C41.25 10.99 39.67 10.04 37.2 10.04H35.39L34.26 16.93Z" fill="#003087"/>
  <path d="M45.99 11.51H49.89L49.51 13.7H49.57C50.46 12.18 52.04 11.08 54.07 11.08C56.89 11.08 58.61 13.24 58.08 16.36C57.49 19.7 54.96 21.34 52.33 21.34C50.56 21.34 49.17 20.63 48.65 19.45H48.59L47.83 23.94H43.93L45.99 11.51ZM53.98 16.18C54.27 14.47 53.4 13.36 51.79 13.36C50.21 13.36 48.88 14.51 48.59 16.18C48.31 17.85 49.26 19.01 50.81 19.01C52.38 19.01 53.69 17.85 53.98 16.18Z" fill="#009CDE"/>
  <path d="M61.81 6.6H65.71L63.01 23.4H59.11L61.81 6.6Z" fill="#012169"/>
</svg>
