<svg width="96" height="32" viewBox="0 0 96 32" fill="none" xmlns="http://www.w3.org/2000/svg">
  <rect width="96" height="32" rx="8" fill="white"/>
  <path d="M37.473 22.598L40.409 9.457H45.103L42.167 22.598H37.473Z" fill="#1A1F71"/>
  <path d="M59.528 9.778C58.601 9.43 57.143 9.05 55.337 9.05C50.727 9.05 47.48 11.367 47.46 14.686C47.428 17.147 49.8 18.522 51.59 19.334C53.426 20.161 54.043 20.687 54.034 21.401C54.022 22.494 52.62 22.996 51.314 22.996C49.494 22.996 48.529 22.741 47.042 22.119L46.456 21.858L45.838 25.436C46.911 25.906 48.891 26.316 50.949 26.337C55.858 26.337 59.046 24.042 59.082 20.49C59.099 18.54 57.855 17.055 55.159 15.807C53.53 15.022 52.533 14.493 52.544 13.688C52.544 12.974 53.392 12.212 55.23 12.212C56.749 12.188 57.854 12.522 58.693 12.87L59.103 13.062L59.528 9.778Z" fill="#1A1F71"/>
  <path d="M67.355 17.942C67.745 16.944 69.24 12.957 69.24 12.957C69.214 13.005 69.627 11.894 69.864 11.204L70.211 12.815C70.211 12.815 71.157 17.049 71.353 17.942C70.564 17.942 68.15 17.942 67.355 17.942ZM73.15 9.457H69.524C68.403 9.457 67.563 9.77 67.079 10.918L60.115 22.598H65.019C65.019 22.598 65.824 21.088 66.009 20.759C66.548 20.759 71.342 20.759 72.025 20.759C72.156 21.184 72.557 22.598 72.557 22.598H76.892L73.15 9.457Z" fill="#1A1F71"/>
  <path d="M33.54 9.457L28.953 18.387L28.458 15.998C27.606 13.298 24.945 10.37 21.968 8.924L26.165 22.578H31.104L38.457 9.457H33.54Z" fill="#1A1F71"/>
  <path d="M24.708 9.457H17.192L17.108 9.814C22.96 11.262 26.832 14.844 28.458 18.001L26.798 11.04C26.512 9.928 25.686 9.494 24.708 9.457Z" fill="#F7B600"/>
</svg>
